<svg width="24" height="24" viewBox="0 0 24 24" fill="none" xmlns="http://www.w3.org/2000/svg">
<g id="Icon_28">
<path id="color" d="M12 7.36572V15.9441" stroke="#666666" stroke-width="2" stroke-linecap="round" stroke-linejoin="round"/>
<path id="color_2" d="M12 19.0795C11.2303 18.365 9.57011 17.8689 7.64366 17.8689C6.18187 17.8689 4.87982 18.1511 3.99404 18.6016C3.67458 18.7654 3.28735 18.5425 3.28735 18.2011V7.716C3.28735 7.47026 3.389 7.23361 3.57777 7.06068C4.42967 6.29159 5.93018 5.77734 7.64366 5.77734C8.43747 5.77734 9.18772 5.88656 9.84601 6.08225" stroke="#666666" stroke-width="2" stroke-linecap="round" stroke-linejoin="round"/>
<path id="color_3" d="M12 19.0795C12.7696 18.365 14.4298 17.8689 16.3563 17.8689C17.8181 17.8689 19.1201 18.1511 20.0059 18.6016C20.3254 18.7654 20.7126 18.5425 20.7126 18.2011V7.716C20.7126 7.47026 20.611 7.23361 20.4222 7.06068C19.5703 6.29159 18.0698 5.77734 16.3563 5.77734C14.4298 5.77734 12.7696 6.42811 12 7.36559" stroke="#666666" stroke-width="2" stroke-linecap="round" stroke-linejoin="round"/>
</g>
</svg>
