<svg width="14" height="11" viewBox="0 0 14 11" fill="none" xmlns="http://www.w3.org/2000/svg">
<g id="_&#229;&#175;&#131;&#226;&#145;&#184;&#226;&#148;&#129;_&#239;&#167;&#143;&#226;&#145;&#164;&#235;&#177;&#182;" clip-path="url(#clip0_82_3863)">
<path id="Vector" d="M11.6279 1.06031C10.7522 0.63745 9.82724 0.336357 8.8771 0.166992C8.74706 0.412737 8.62961 0.665124 8.52474 0.923046C7.51273 0.762537 6.48394 0.762537 5.47193 0.923046C5.36706 0.665124 5.24961 0.412737 5.11957 0.166992C4.16943 0.338571 3.24342 0.639664 2.3667 1.06252C0.625833 3.78122 0.153912 6.43239 0.389872 9.04592C1.40922 9.84072 2.55022 10.4462 3.76358 10.8337C4.03625 10.4462 4.2785 10.0344 4.48614 9.60383C4.09183 9.44885 3.71115 9.25624 3.34829 9.03042C3.44372 8.95736 3.53706 8.88209 3.62725 8.80903C5.76348 9.8695 8.23634 9.8695 10.3726 8.80903C10.4638 8.88762 10.5571 8.9629 10.6515 9.03042C10.2887 9.25735 9.90694 9.44885 9.51157 9.60493C9.71922 10.0355 9.96042 10.4462 10.2341 10.8337C11.4485 10.4473 12.5906 9.84293 13.6099 9.04703C13.8868 6.01617 13.137 3.38935 11.6279 1.06031ZM4.78503 7.43861C4.12748 7.43861 3.58425 6.80875 3.58425 6.03388C3.58425 5.25901 4.10861 4.62361 4.78293 4.62361C5.45725 4.62361 5.99629 5.25901 5.98475 6.03388C5.97322 6.80875 5.45515 7.43861 4.78503 7.43861ZM9.21479 7.43861C8.5562 7.43861 8.01506 6.80875 8.01506 6.03388C8.01506 5.25901 8.53942 4.62361 9.21479 4.62361C9.89016 4.62361 10.425 5.25901 10.4135 6.03388C10.4019 6.80875 9.88492 7.43861 9.21479 7.43861Z" fill="#9A9A9A"/>
</g>
<defs>
<clipPath id="clip0_82_3863">
<rect width="13.3333" height="10.6667" fill="white" transform="translate(0.333252 0.166992)"/>
</clipPath>
</defs>
</svg>
