<svg width="24" height="24" viewBox="0 0 24 24" fill="none" xmlns="http://www.w3.org/2000/svg">
<path d="M12 14.9047C13.6044 14.9047 14.905 13.6041 14.905 11.9997C14.905 10.3953 13.6044 9.09473 12 9.09473C10.3956 9.09473 9.09497 10.3953 9.09497 11.9997C9.09497 13.6041 10.3956 14.9047 12 14.9047Z" stroke="white" stroke-width="2" stroke-linecap="round" stroke-linejoin="round"/>
<path d="M21 13.695V10.305H18.275C18.13 9.76 17.915 9.24 17.635 8.76L19.56 6.835L17.165 4.44L15.24 6.365C14.76 6.09 14.24 5.87 13.695 5.72V3H10.305V5.72C9.76 5.87 9.24 6.085 8.76 6.365L6.835 4.44L4.44 6.835L6.365 8.76C6.09 9.24 5.875 9.76 5.725 10.305H3V13.695H5.725C5.87 14.24 6.085 14.76 6.365 15.24L4.44 17.165L6.835 19.56L8.76 17.635C9.24 17.91 9.76 18.13 10.305 18.28V21H13.695V18.28C14.24 18.13 14.76 17.915 15.24 17.635L17.165 19.56L19.56 17.165L17.635 15.24C17.91 14.76 18.125 14.24 18.275 13.695H21Z" stroke="white" stroke-width="2" stroke-linecap="round" stroke-linejoin="round"/>
</svg>
