<svg width="18" height="21" viewBox="0 0 18 21" fill="none" xmlns="http://www.w3.org/2000/svg">
<g id="_&#230;&#180;&#185;&#235;&#170;&#131;&#239;&#188;&#153;_2116">
<path id="_?&#226;&#145;&#165;&#235;&#146;&#170;_1763" d="M14.1899 14.7399H13.8699V6.13994H14.1899C15.6499 6.16994 16.9199 5.16994 17.2499 3.74994C17.5899 2.11994 16.5499 0.529938 14.9199 0.189938C14.7199 0.149938 14.5099 0.129938 14.2999 0.129938H3.12988C1.46988 0.119938 0.129883 1.46994 0.129883 3.12994V17.7399C0.129883 19.3999 1.46988 20.7499 3.13988 20.7499H14.3199C15.9799 20.7499 17.3299 19.3999 17.3299 17.7299C17.3299 17.5199 17.3099 17.3199 17.2699 17.1099C16.9399 15.6899 15.6599 14.6999 14.2099 14.7299L14.1899 14.7399ZM5.83988 1.84994H14.2399C14.8499 1.83994 15.3899 2.22994 15.5499 2.81994C15.7299 3.50994 15.3099 4.20994 14.6199 4.38994C14.5199 4.41994 14.4099 4.42994 14.2999 4.42994H5.83988C6.23988 3.61994 6.23988 2.65994 5.83988 1.84994ZM2.80988 1.88994C3.49988 1.71994 4.20988 2.13994 4.37988 2.82994C4.42988 3.03994 4.42988 3.24994 4.37988 3.45994C4.19988 4.14994 3.49988 4.56994 2.80988 4.38994C2.11988 4.20994 1.69988 3.50994 1.87988 2.81994C1.99988 2.35994 2.34988 1.99994 2.80988 1.88994ZM1.83988 5.83994C2.23988 6.03994 2.67988 6.13994 3.12988 6.13994H12.1499V14.7299H3.12988C2.67988 14.7299 2.23988 14.8299 1.83988 15.0299V5.83994ZM3.45988 18.9999C2.76988 19.1799 2.06988 18.7599 1.88988 18.0699C1.70988 17.3799 2.12988 16.6799 2.81988 16.4999C3.50988 16.3199 4.20988 16.7399 4.38988 17.4299C4.43988 17.6399 4.43988 17.8599 4.38988 18.0699C4.26988 18.5299 3.91988 18.8799 3.45988 18.9999ZM14.2399 19.0399H5.83988C6.23988 18.2299 6.23988 17.2699 5.83988 16.4599H14.3099C15.0199 16.4599 15.5999 17.0399 15.5999 17.7599C15.5999 17.8699 15.5899 17.9699 15.5599 18.0699C15.3999 18.6499 14.8599 19.0499 14.2499 19.0399H14.2399Z" fill="#666666" stroke="#666666" stroke-width="0.25"/>
</g>
</svg>
