<svg width="24" height="24" viewBox="0 0 24 24" fill="none" xmlns="http://www.w3.org/2000/svg">
<path fill-rule="evenodd" clip-rule="evenodd" d="M13.7968 3.0593L13.8765 3.20259L21.7235 18.4854C21.9048 18.8384 22 19.2366 22 19.6416C22 20.8898 21.1148 21.9116 19.9946 21.9946L19.8472 22H4.15316C3.78345 22 3.41997 21.8957 3.09774 21.6971C2.10858 21.0876 1.72875 19.7497 2.20323 18.6419L2.27685 18.4854L10.1239 3.20259C10.2896 2.87991 10.5219 2.60527 10.8012 2.40003L10.9448 2.30329L11.0946 2.21912C12.0585 1.72811 13.2112 2.08545 13.7968 3.0593ZM12 4L4 20H20L12 4ZM13 17V19H11V17H13ZM12 9C12.5523 9 13 9.44772 13 10V15C13 15.5523 12.5523 16 12 16C11.4477 16 11 15.5523 11 15V10C11 9.44772 11.4477 9 12 9Z" fill="#861CC4"/>
</svg>
