<svg width="24" height="24" viewBox="0 0 24 24" fill="none" xmlns="http://www.w3.org/2000/svg">
<g id="Icon_28">
<path id="color" d="M9.25766 13.8336C8.95747 13.7535 8.63713 13.8175 8.39076 14.0068C8.1444 14.1961 8 14.4891 8 14.7998V16.9998C8 18.0262 8.77228 18.8707 9.76801 18.9864C9.78721 18.9886 9.80648 18.9903 9.82579 18.9914L9.94241 18.9981C9.96158 18.9993 9.98079 18.9998 10 18.9998H14C15.0264 18.9998 15.8709 18.2275 15.9866 17.2318C15.9888 17.2126 15.9905 17.1933 15.9916 17.174L15.9983 17.0574C15.9994 17.0382 16 17.019 16 16.9998V16.3998C16 15.9468 15.6954 15.5503 15.2577 15.4336L9.25766 13.8336Z" stroke="#861CC4" stroke-width="2" stroke-linejoin="round"/>
<path id="color_2" d="M20 5.77393C20 5.45247 19.8455 5.15062 19.5847 4.96267C19.3239 4.77472 18.9887 4.72359 18.6837 4.82526L6.16225 8.99993H5C4.44772 8.99993 4 9.44764 4 9.99993V11.9999C4 12.5522 4.44772 12.9999 5 12.9999H6.13107L18.7424 16.3622C19.0426 16.4422 19.3629 16.3782 19.6093 16.1889C19.8556 15.9996 20 15.7066 20 15.3959V5.77393Z" stroke="#861CC4" stroke-width="2" stroke-linejoin="round"/>
</g>
</svg>
