<svg width="20" height="21" viewBox="0 0 20 21" fill="none" xmlns="http://www.w3.org/2000/svg">
<path d="M18.3999 14.365L17.0099 12.975C16.2099 12.175 14.9149 12.175 14.1199 12.975L13.3699 13.725C12.3699 14.725 10.7549 14.725 9.75494 13.725L6.77494 10.745C5.77494 9.745 5.77494 8.13 6.77494 7.13L7.52494 6.38C8.32494 5.58 8.32494 4.285 7.52494 3.49L6.13494 2.1C5.33494 1.3 4.03994 1.3 3.24494 2.1C0.254941 5.09 0.254941 9.94 3.24494 12.935C4.32494 14.015 6.48994 16.18 7.56994 17.26C10.5599 20.25 15.4099 20.25 18.3999 17.26C19.1999 16.46 19.1999 15.165 18.3999 14.365Z" stroke="#7C7C7C" stroke-width="2" stroke-linecap="round" stroke-linejoin="round"/>
</svg>
