<svg width="16" height="17" viewBox="0 0 16 17" fill="none" xmlns="http://www.w3.org/2000/svg">
<g id="Frame 63">
<g id="XMLID_184_">
<path id="Exclude" fill-rule="evenodd" clip-rule="evenodd" d="M13.2092 4.11161C13.7828 4.26497 14.2346 4.71675 14.388 5.29042C14.6666 6.33022 14.6666 8.49967 14.6666 8.49967C14.6666 8.49967 14.6666 10.6691 14.388 11.7089C14.2346 12.2826 13.7828 12.7344 13.2092 12.8877C12.1694 13.1663 7.99992 13.1663 7.99992 13.1663C7.99992 13.1663 3.83047 13.1663 2.79067 12.8877C2.217 12.7344 1.76521 12.2826 1.61187 11.7089C1.33325 10.6691 1.33325 8.49967 1.33325 8.49967C1.33325 8.49967 1.33325 6.33022 1.61187 5.29042C1.76521 4.71675 2.217 4.26494 2.79067 4.11161C3.83047 3.83301 7.99992 3.83301 7.99992 3.83301C7.99992 3.83301 12.1694 3.83301 13.2092 4.11161ZM10.1215 8.49938L6.63664 10.469V6.52962L10.1215 8.49938Z" fill="#9A9A9A"/>
</g>
</g>
</svg>
