<svg width="52" height="24" viewBox="0 0 52 24" fill="none" xmlns="http://www.w3.org/2000/svg">
<g id="Logo 2" clip-path="url(#clip0_77_2256)">
<g id="_&#235;&#160;&#136;&#236;&#157;&#180;&#236;&#150;&#180;_2-2">
<path id="Vector" d="M0 3.23535V19.2921L1.14792 20.4641L2.13887 18.9415L2.81585 17.4591L4.61132 15.616L3.89509 14.9048H3.2083L1.50113 17.5192V17.8497L1.41283 17.9499V4.67776L0 3.23535Z" fill="#A4A4A4"/>
<path id="Vector_2" d="M7.92749 3.69629V19.2522L9.05579 20.4041L14.3147 15.4859V3.69629H12.8626V14.8549C12.6467 15.3157 11.8422 16.1671 9.38938 17.6996V3.69629H7.9373H7.92749Z" fill="#A4A4A4"/>
<path id="Vector_3" d="M33.3389 3.69629V19.2522L34.4672 20.4041L39.726 15.4859V3.69629H38.274V14.8549C38.0581 15.3157 37.2536 16.1671 34.8008 17.6996V3.69629H33.3487H33.3389Z" fill="#A4A4A4"/>
<path id="Vector_4" d="M48.2423 6.66134L45.3283 4.057H44.1313V20.2941H45.5246V11.0987C46.3095 9.91677 47.2023 9.0954 48.1736 8.65466L50.2242 10.7482V20.2941H51.0483L51.9902 19.3224V4.25733L51.3034 3.53613L48.2325 6.67136L48.2423 6.66134ZM49.1547 7.82328L50.234 6.72144V8.48438L49.1547 7.82328ZM45.5344 6.24064L47.1827 7.65299V7.68304C46.3683 8.09373 45.8287 8.52445 45.5344 8.99523V6.24064Z" fill="#A4A4A4"/>
<path id="Vector_5" d="M23.6355 12.9416C24.0378 12.2404 23.6748 11.4992 23.6355 11.4391L22.9585 10.1269L22.3306 8.94492C22.2521 8.78466 22.1736 8.61437 22.0853 8.43407C21.5261 7.29217 20.6627 5.75962 19.5148 3.86646L19.2989 3.50586L18.1804 4.69785V19.6628L18.7397 20.2538H19.4363L23.6355 12.9316V12.9416ZM19.5736 17.3089V6.60102L22.2521 11.5993L19.5736 17.2988V17.3089Z" fill="#A4A4A4"/>
<path id="Vector_6" d="M52 0H0V1.46244H52V0Z" fill="#A4A4A4"/>
<path id="Vector_7" d="M52 22.5376H0V24H52V22.5376Z" fill="#A4A4A4"/>
<path id="Vector_8" d="M28.6688 3.69629H27.2363V20.2639H28.6688V3.69629Z" fill="#A4A4A4"/>
</g>
</g>
<defs>
<clipPath id="clip0_77_2256">
<rect width="52" height="24" fill="white"/>
</clipPath>
</defs>
</svg>
