<svg width="16" height="17" viewBox="0 0 16 17" fill="none" xmlns="http://www.w3.org/2000/svg">
<g id="Frame 61">
<path id="Vector" d="M14.6666 4.50889C14.1762 4.73611 13.6495 4.88965 13.0958 4.95904C13.6607 4.60531 14.094 4.04396 14.2984 3.37578C13.7699 3.70374 13.1844 3.94202 12.5614 4.06976C12.0623 3.5146 11.3517 3.16699 10.5649 3.16699C9.05455 3.16699 7.82963 4.44808 7.82963 6.02888C7.8297 6.24796 7.85334 6.46634 7.90009 6.67989C5.62581 6.56011 3.61106 5.42087 2.26164 3.69023C2.02678 4.11399 1.89169 4.60531 1.89169 5.12855C1.89169 6.12098 2.375 6.99738 3.10841 7.5102C2.67403 7.49573 2.24924 7.37297 1.86938 7.15214V7.18899C1.86938 8.57509 2.81187 9.73153 4.06381 9.9944C3.82889 10.0607 3.58661 10.0941 3.3433 10.0939C3.17051 10.094 2.99809 10.0772 2.82832 10.0435C3.17654 11.1797 4.18656 12.0075 5.38389 12.0296C4.44726 12.7973 3.26755 13.2548 1.98624 13.2548C1.76545 13.2548 1.54758 13.2413 1.33325 13.2149C2.54411 14.0275 3.98161 14.5003 5.52598 14.5003C10.5584 14.5003 13.3095 10.1411 13.3095 6.36051C13.3095 6.2377 13.3066 6.11362 13.3013 5.99081C13.8357 5.58669 14.2996 5.08372 14.6654 4.51072L14.6666 4.50889Z" fill="#9A9A9A"/>
</g>
</svg>
