<svg width="16" height="15" viewBox="0 0 16 15" fill="none" xmlns="http://www.w3.org/2000/svg">
<g id="Capa_1">
<path id="Vector" d="M4.07417 10.1965H3.11584C2.5278 10.1965 2.05103 9.71367 2.05103 9.11811V6.96124C2.05103 6.36568 2.5278 5.88281 3.11584 5.88281H4.07417V10.1965Z" stroke="#9A9A9A" stroke-linecap="round" stroke-linejoin="round"/>
<path id="Vector_2" d="M13.5511 10.1965H12.5928V5.88281H13.5511C14.1392 5.88281 14.6159 6.36568 14.6159 6.96124V9.11811C14.6159 9.71367 14.1392 10.1965 13.5511 10.1965Z" stroke="#9A9A9A" stroke-linecap="round" stroke-linejoin="round"/>
<path id="Vector_3" d="M4.07422 5.88306C4.07422 3.50054 5.98104 1.56934 8.33348 1.56934C10.6857 1.56934 12.5927 3.50054 12.5927 5.88306" stroke="#9A9A9A" stroke-linecap="round" stroke-linejoin="round"/>
<path id="Vector_4" d="M8.33337 13.4313C8.92145 13.4313 9.39818 12.9484 9.39818 12.3528C9.39818 11.7572 8.92145 11.2744 8.33337 11.2744C7.74529 11.2744 7.26855 11.7572 7.26855 12.3528C7.26855 12.9484 7.74529 13.4313 8.33337 13.4313Z" stroke="#9A9A9A" stroke-linecap="round" stroke-linejoin="round"/>
<path id="Vector_5" d="M9.39819 12.3532H10.463C11.6391 12.3532 12.5926 11.3874 12.5926 10.1963" stroke="#9A9A9A" stroke-linecap="round" stroke-linejoin="round"/>
</g>
</svg>
