<svg width="70" height="32" viewBox="0 0 70 32" fill="none" xmlns="http://www.w3.org/2000/svg">
<g clip-path="url(#clip0_77_2245)">
<path d="M0 4.31396V25.723L1.54528 27.2856L2.87925 25.2555L3.79057 23.2789L6.20755 20.8215L5.2434 19.8732H4.31887L2.02075 23.359V23.7998L1.90189 23.9333V6.23717L0 4.31396Z" fill="#861CC4"/>
<path d="M10.6716 4.92822V25.6695L12.1905 27.2054L19.2697 20.6478V4.92822H17.315V19.8064C17.0245 20.4207 15.9414 21.5559 12.6396 23.5993V4.92822H10.6848H10.6716Z" fill="#861CC4"/>
<path d="M44.8792 4.92822V25.6695L46.398 27.2054L53.4773 20.6478V4.92822H51.5225V19.8064C51.232 20.4207 50.149 21.5559 46.8471 23.5993V4.92822H44.8924H44.8792Z" fill="#861CC4"/>
<path d="M64.9414 8.8813L61.0188 5.40885H59.4075V27.0583H61.2829V14.7978C62.3395 13.2219 63.5414 12.1267 64.849 11.5391L67.6094 14.3304V27.0583H68.7188L69.9867 25.7628V5.67596L69.0622 4.71436L64.9282 8.89466L64.9414 8.8813ZM66.1697 10.4305L67.6226 8.96143V11.312L66.1697 10.4305ZM61.2962 8.32037L63.515 10.2035V10.2436C62.4188 10.7912 61.6924 11.3654 61.2962 11.9932V8.32037Z" fill="#861CC4"/>
<path d="M31.817 17.2553C32.3585 16.3204 31.8699 15.3321 31.817 15.2519L30.9057 13.5024L30.0604 11.9264C29.9548 11.7127 29.8491 11.4857 29.7302 11.2453C28.9774 9.72273 27.8151 7.67932 26.2699 5.15512L25.9793 4.67432L24.4736 6.26363V26.2169L25.2265 27.0049H26.1642L31.817 17.2419V17.2553ZM26.3491 23.0783V8.80119L29.9548 15.4656L26.3491 23.065V23.0783Z" fill="#861CC4"/>
<path d="M70 0H0V1.94992H70V0Z" fill="#861CC4"/>
<path d="M70 30.0503H0V32.0002H70V30.0503Z" fill="#861CC4"/>
<path d="M38.5924 4.92822H36.6641V27.0184H38.5924V4.92822Z" fill="#861CC4"/>
</g>
<defs>
<clipPath id="clip0_77_2245">
<rect width="70" height="32" fill="white"/>
</clipPath>
</defs>
</svg>
